{
  "accessors": [
    {
      "bufferView": 2,
      "componentType": 5126,
      "count": 4485,
      "max": [
        1.2108403444290161,
        -0.09811259061098099,
        1.2108403444290161
      ],
      "min": [
        -1.2108403444290161,
        -4.769845962524414,
        -1.2108403444290161
      ],
      "type": "VEC3"
    },
    {
      "bufferView": 2,
      "byteOffset": 53820,
      "componentType": 5126,
      "count": 4485,
      "max": [
        1.0,
        0.5685608386993408,
        1.0
      ],
      "min": [
        -1.0,
        -0.0058719380758702755,
        -1.0
      ],
      "type": "VEC3"
    },
    {
      "bufferView": 1,
      "componentType": 5126,
      "count": 4485,
      "max": [
        0.999902606010437,
        0.9998854398727417
      ],
      "min": [
        0.0004145528073422611,
        0.0004563331604003906
      ],
      "type": "VEC2"
    },
    {
      "bufferView": 0,
      "componentType": 5125,
      "count": 26112,
      "type": "SCALAR"
    },
    {
      "bufferView": 2,
      "byteOffset": 107640,
      "componentType": 5126,
      "count": 10958,
      "max": [
        1.210485577583313,
        0.0341358408331871,
        1.2104856967926025
      ],
      "min": [
        -1.2104851007461548,
        -4.991746425628662,
        -1.2104848623275757
      ],
      "type": "VEC3"
    },
    {
      "bufferView": 2,
      "byteOffset": 239136,
      "componentType": 5126,
      "count": 10958,
      "max": [
        0.9999828338623047,
        1.0,
        0.9999828338623047
      ],
      "min": [
        -0.9999828338623047,
        -1.0,
        -0.9999827742576599
      ],
      "type": "VEC3"
    },
    {
      "bufferView": 1,
      "byteOffset": 35880,
      "componentType": 5126,
      "count": 10958,
      "max": [
        1.001024842262268,
        0.9375002980232239
      ],
      "min": [
        -0.0010423945495858788,
        0.0
      ],
      "type": "VEC2"
    },
    {
      "bufferView": 0,
      "byteOffset": 104448,
      "componentType": 5125,
      "count": 63984,
      "type": "SCALAR"
    },
    {
      "bufferView": 2,
      "byteOffset": 370632,
      "componentType": 5126,
      "count": 7166,
      "max": [
        0.9746266007423401,
        -1.986821644095471e-06,
        1.0679242610931396
      ],
      "min": [
        -2.532371759414673,
        -0.16432224214076996,
        -1.0679242610931396
      ],
      "type": "VEC3"
    },
    {
      "bufferView": 2,
      "byteOffset": 456624,
      "componentType": 5126,
      "count": 7166,
      "max": [
        1.0,
        1.0,
        1.0
      ],
      "min": [
        -1.0,
        -1.0,
        -1.0
      ],
      "type": "VEC3"
    },
    {
      "bufferView": 1,
      "byteOffset": 123544,
      "componentType": 5126,
      "count": 7166,
      "max": [
        0.0,
        0.0
      ],
      "min": [
        0.0,
        0.0
      ],
      "type": "VEC2"
    },
    {
      "bufferView": 0,
      "byteOffset": 360384,
      "componentType": 5125,
      "count": 43008,
      "type": "SCALAR"
    },
    {
      "bufferView": 2,
      "byteOffset": 542616,
      "componentType": 5126,
      "count": 2023,
      "max": [
        0.9793773293495178,
        0.9995389580726624,
        0.9794163107872009
      ],
      "min": [
        -0.9793773293495178,
        -0.9997320175170898,
        -0.9794163107872009
      ],
      "type": "VEC3"
    },
    {
      "bufferView": 2,
      "byteOffset": 566892,
      "componentType": 5126,
      "count": 2023,
      "max": [
        0.9999998807907104,
        1.0,
        0.9999998807907104
      ],
      "min": [
        -0.9999998807907104,
        -1.0,
        -0.9999998807907104
      ],
      "type": "VEC3"
    },
    {
      "bufferView": 1,
      "byteOffset": 180872,
      "componentType": 5126,
      "count": 2023,
      "max": [
        1.0000001192092896,
        1.0000001192092896
      ],
      "min": [
        -1.8626454334480513e-07,
        0.010062795132398605
      ],
      "type": "VEC2"
    },
    {
      "bufferView": 0,
      "byteOffset": 532416,
      "componentType": 5125,
      "count": 9504,
      "type": "SCALAR"
    }
  ],
  "asset": {
    "extras": {
      "author": "Elodant (https://sketchfab.com/Elodant)",
      "license": "CC-BY-4.0 (http://creativecommons.org/licenses/by/4.0/)",
      "source": "https://sketchfab.com/3d-models/coca-cola-can-095bc65f43f941569c19affb79bfe1f8",
      "title": "Coca-Cola Can"
    },
    "generator": "Sketchfab-15.31.0",
    "version": "2.0"
  },
  "bufferViews": [
    {
      "buffer": 0,
      "byteLength": 570432,
      "name": "floatBufferViews",
      "target": 34963
    },
    {
      "buffer": 0,
      "byteLength": 197056,
      "byteOffset": 570432,
      "byteStride": 8,
      "name": "floatBufferViews",
      "target": 34962
    },
    {
      "buffer": 0,
      "byteLength": 591168,
      "byteOffset": 767488,
      "byteStride": 12,
      "name": "floatBufferViews",
      "target": 34962
    }
  ],
  "buffers": [
    {
      "byteLength": 1358656,
      "uri": "scene.bin"
    }
  ],
  "images": [
    {
      "uri": "textures/Material.001_baseColor.jpeg"
    }
  ],
  "materials": [
    {
      "doubleSided": true,
      "name": "Material.001",
      "pbrMetallicRoughness": {
        "baseColorTexture": {
          "index": 0
        },
        "metallicFactor": 0.9,
        "roughnessFactor": 0.2
      }
    },
    {
      "doubleSided": true,
      "name": "Material.002",
      "pbrMetallicRoughness": {
        "baseColorFactor": [
          0.51216,
          0.51216,
          0.51216,
          1.0
        ],
        "roughnessFactor": 0.15
      }
    }
  ],
  "meshes": [
    {
      "name": "Object_0",
      "primitives": [
        {
          "attributes": {
            "NORMAL": 1,
            "POSITION": 0,
            "TEXCOORD_0": 2
          },
          "indices": 3,
          "material": 0,
          "mode": 4
        }
      ]
    },
    {
      "name": "Object_1",
      "primitives": [
        {
          "attributes": {
            "NORMAL": 5,
            "POSITION": 4,
            "TEXCOORD_0": 6
          },
          "indices": 7,
          "material": 1,
          "mode": 4
        }
      ]
    },
    {
      "name": "Object_2",
      "primitives": [
        {
          "attributes": {
            "NORMAL": 9,
            "POSITION": 8,
            "TEXCOORD_0": 10
          },
          "indices": 11,
          "material": 1,
          "mode": 4
        }
      ]
    },
    {
      "name": "Object_3",
      "primitives": [
        {
          "attributes": {
            "NORMAL": 13,
            "POSITION": 12,
            "TEXCOORD_0": 14
          },
          "indices": 15,
          "material": 1,
          "mode": 4
        }
      ]
    }
  ],
  "nodes": [
    {
      "children": [
        1
      ],
      "matrix": [
        1.0,
        0.0,
        0.0,
        0.0,
        0.0,
        2.220446049250313e-16,
        -1.0,
        0.0,
        0.0,
        1.0,
        2.220446049250313e-16,
        0.0,
        0.0,
        0.0,
        0.0,
        1.0
      ],
      "name": "Sketchfab_model"
    },
    {
      "children": [
        2
      ],
      "name": "root"
    },
    {
      "children": [
        3,
        6,
        8
      ],
      "matrix": [
        1.0,
        0.0,
        0.0,
        0.0,
        0.0,
        2.220446049250313e-16,
        1.0,
        0.0,
        0.0,
        -1.0,
        2.220446049250313e-16,
        0.0,
        0.0,
        0.0,
        0.0,
        1.0
      ],
      "name": "GLTF_SceneRootNode"
    },
    {
      "children": [
        4,
        5
      ],
      "matrix": [
        0.48333507776260376,
        0.0,
        0.0,
        0.0,
        0.0,
        0.48333507776260376,
        0.0,
        0.0,
        0.0,
        0.0,
        0.48333507776260376,
        0.0,
        0.0,
        1.1383869647979736,
        0.0,
        1.0
      ],
      "name": "Lata_0"
    },
    {
      "mesh": 0,
      "name": "Object_4"
    },
    {
      "mesh": 1,
      "name": "Object_5"
    },
    {
      "children": [
        7
      ],
      "matrix": [
        0.12582406401634216,
        0.0,
        0.0,
        0.0,
        0.0,
        0.12582406401634216,
        0.0,
        0.0,
        0.0,
        0.0,
        0.12582406401634216,
        0.0,
        0.03391142934560776,
        1.1254569292068481,
        0.0,
        1.0
      ],
      "name": "Circle_1"
    },
    {
      "mesh": 2,
      "name": "Object_7"
    },
    {
      "children": [
        9
      ],
      "matrix": [
        0.02697472646832466,
        0.0,
        0.0,
        0.0,
        0.0,
        0.00804770365357399,
        0.0,
        0.0,
        0.0,
        0.0,
        0.02697472646832466,
        0.0,
        0.00692435447126627,
        1.1185154914855957,
        0.0,
        1.0
      ],
      "name": "Cylinder_2"
    },
    {
      "mesh": 3,
      "name": "Object_9"
    }
  ],
  "samplers": [
    {
      "magFilter": 9729,
      "minFilter": 9987,
      "wrapS": 10497,
      "wrapT": 10497
    }
  ],
  "scene": 0,
  "scenes": [
    {
      "name": "Sketchfab_Scene",
      "nodes": [
        0
      ]
    }
  ],
  "textures": [
    {
      "sampler": 0,
      "source": 0
    }
  ]
}
